<?xml version="1.0" encoding="utf-8"?>
<!-- Generator: Adobe Illustrator 21.0.0, SVG Export Plug-In . SVG Version: 6.00 Build 0)  -->
<svg version="1.1" id="Capa_1" xmlns="http://www.w3.org/2000/svg" xmlns:xlink="http://www.w3.org/1999/xlink" x="0px" y="0px"
	 viewBox="0 0 229 78" style="enable-background:new 0 0 229 78;" xml:space="preserve">
<style type="text/css">
	.st0{fill:#FFFFFF;}
</style>
<g>
	<g>
		<path class="st0" d="M86.5,45.3c4.1-2.4,1-6-0.6-7.5c-0.5-0.4-0.5-1.2-0.1-1.6c4-4.6,0.6-6.8-1.5-7.7c-0.7-0.3-0.9-1.1-0.5-1.7
			c3.7-6.1-0.2-7.4-2.8-7.7c-0.9-0.1-1.4-1.1-0.9-1.8C86.2,7.4,79,11,79,11c-14,7-24,12-25,18c-0.9,5.2-4.7,5.9-5.7,6
			c-1.1-0.1-4.9-0.8-5.7-6c-1-6-11-11-25-18c0,0-7.2-3.6-1.1,6.2c0.5,0.7,0,1.7-0.9,1.8c-2.6,0.3-6.4,1.6-2.8,7.7
			c0.4,0.6,0.1,1.4-0.5,1.7c-2.1,0.9-5.4,3.1-1.5,7.7c0.4,0.5,0.4,1.2-0.1,1.6C9,39.3,5.9,42.9,10,45.3c0.7,0.4,0.8,1.3,0.3,1.8
			c-1.6,1.7-3.6,4.8,1.5,6.4c0.8,0.2,1.1,1.1,0.6,1.8c-1.3,1.9-2.6,5.3,3.2,6.4c0.8,0.2,1.2,1.1,0.8,1.8c-2.3,3.4-6.5,11,6.1,5.4
			c16-7,16-6,20-15.9c0-0.1,0-0.1,0.1-0.2c0.1-0.6,1.3-4.7,5.7-4.9c4.4,0.2,5.6,4.3,5.7,4.9c0,0.1,0,0.1,0.1,0.2C58,63,58,62,74,69
			c12.6,5.5,8.5-2,6.1-5.4c-0.5-0.7-0.1-1.7,0.8-1.8c5.8-1.1,4.5-4.5,3.2-6.4c-0.4-0.7-0.1-1.6,0.6-1.8c5.2-1.6,3.1-4.8,1.5-6.4
			C85.7,46.6,85.9,45.7,86.5,45.3z"/>
	</g>
</g>
<g>
	<g>
		<path class="st0" d="M104.9,29.4V36h-2.7V15.4h5.8c1.7,0.2,3,0.9,4.2,2c1.4,1.4,2,3,2,4.9c0,1.9-0.7,3.6-2,5c-1.4,1.4-3,2-4.9,2
			H104.9z M104.9,18.1v8.6h2.4c1.2,0,2.2-0.4,3-1.3c0.8-0.8,1.3-1.9,1.3-3.1c0-1.2-0.4-2.2-1.3-3c-0.8-0.8-1.9-1.3-3-1.3H104.9z"/>
	</g>
	<g>
		<path class="st0" d="M127.2,23.7v-0.9h2.7V36h-2.7v-1.7c-1.3,1.3-2.8,2-4.5,2c-2,0-3.7-0.7-5.2-2.1s-2.1-3.1-2.1-5.2
			c0-2,0.7-3.7,2.1-5.2s3.1-2.1,5.2-2.1C124.5,21.7,126,22.4,127.2,23.7z M127.2,30v-2c-0.2-0.8-0.6-1.6-1.2-2.3
			c-0.9-0.9-2-1.3-3.2-1.3c-1.3,0-2.3,0.4-3.2,1.3c-0.9,0.9-1.3,2-1.3,3.2c0,1.3,0.4,2.3,1.3,3.2c0.9,0.9,2,1.3,3.2,1.3
			c1.3,0,2.3-0.4,3.2-1.3C126.7,31.6,127.1,30.8,127.2,30z"/>
	</g>
	<g>
		<path class="st0" d="M136.5,33.1c0.3,0.3,0.7,0.5,1.1,0.5c0.4,0,0.8-0.2,1.1-0.5s0.5-0.7,0.5-1.1c0-0.4-0.2-0.8-0.5-1.1
			c-0.2-0.2-0.7-0.5-1.4-1c-1-0.5-1.6-1-2-1.4c-0.7-0.7-1.1-1.5-1.1-2.5c0-1,0.4-1.8,1.1-2.5s1.6-1.1,2.5-1.1c1,0,1.8,0.3,2.5,1
			c0.5,0.5,0.8,1,0.9,1.6l-2.6,0.7c-0.1-0.2-0.1-0.4-0.2-0.4c-0.2-0.2-0.4-0.2-0.6-0.2c-0.3,0-0.5,0.1-0.7,0.3
			c-0.2,0.2-0.3,0.4-0.3,0.7s0.1,0.5,0.3,0.7c0.2,0.2,0.5,0.4,1.1,0.8c1.1,0.6,1.8,1.1,2.3,1.6c0.8,0.8,1.2,1.8,1.2,3
			c0,1.2-0.4,2.2-1.2,3c-0.8,0.8-1.8,1.3-3,1.3c-1.2,0-2.2-0.4-3-1.3c-0.6-0.6-1-1.3-1.1-2.1l2.6-0.6
			C136.2,32.7,136.3,33,136.5,33.1z"/>
	</g>
	<g>
		<path class="st0" d="M146.9,22.7v-5h2.7v5h2.4v2.7h-2.4V36h-2.7V25.4h-2.4v-2.7H146.9z"/>
	</g>
	<g>
		<path class="st0" d="M166.5,23.7v-0.9h2.7V36h-2.7v-1.7c-1.3,1.3-2.8,2-4.5,2c-2,0-3.7-0.7-5.2-2.1s-2.1-3.1-2.1-5.2
			c0-2,0.7-3.7,2.1-5.2s3.1-2.1,5.2-2.1C163.7,21.7,165.2,22.4,166.5,23.7z M166.5,30v-2c-0.2-0.8-0.6-1.6-1.2-2.3
			c-0.9-0.9-2-1.3-3.2-1.3c-1.3,0-2.3,0.4-3.2,1.3c-0.9,0.9-1.3,2-1.3,3.2c0,1.3,0.4,2.3,1.3,3.2c0.9,0.9,2,1.3,3.2,1.3
			c1.3,0,2.3-0.4,3.2-1.3C165.9,31.6,166.3,30.8,166.5,30z"/>
	</g>
</g>
<g>
	<g>
		<path class="st0" d="M107.5,50.9c-1.5-0.5-2.6-1.2-3.5-2.1c-0.9-0.9-1.4-2-1.4-3.4c0-1.3,0.5-2.4,1.4-3.4c0.9-0.9,2.1-1.4,3.4-1.4
			c1.3,0,2.4,0.5,3.4,1.4c0.5,0.5,1,1.3,1.3,2.5l-2.4,1c-0.3-0.8-0.6-1.3-0.8-1.5c-0.4-0.4-0.9-0.6-1.5-0.6c-0.6,0-1.1,0.2-1.5,0.6
			c-0.4,0.4-0.6,0.9-0.6,1.5s0.2,1.1,0.6,1.5c0.5,0.5,1.1,0.9,2,1.3c1.6,0.5,3,1.3,4.1,2.5c1.3,1.2,1.9,2.7,1.9,4.5
			c0,1.8-0.6,3.3-1.9,4.5c-1.3,1.3-2.8,1.9-4.5,1.9c-1.8,0-3.3-0.6-4.5-1.9c-1-1-1.6-2.4-1.9-4.1l2.6-0.9c0.2,1.5,0.6,2.6,1.2,3.2
			c0.7,0.7,1.6,1.1,2.7,1.1c1,0,1.9-0.4,2.7-1.1c0.7-0.7,1.1-1.6,1.1-2.7c0-1-0.4-1.9-1.1-2.7C109.4,51.9,108.5,51.3,107.5,50.9z"/>
	</g>
	<g>
		<path class="st0" d="M120.5,58.5c0.4,0.4,1.3,0.6,2.4,0.6c1.3,0,2.4-0.4,3.3-1.3c0.1-0.1,0.3-0.4,0.7-0.8l2.7,1
			c-0.7,0.9-1.1,1.5-1.4,1.8c-1.4,1.4-3.2,2.1-5.2,2.1c-2,0-3.7-0.7-5.2-2.1s-2.1-3.2-2.1-5.2s0.7-3.7,2.1-5.2s3.2-2.1,5.2-2.1
			c1.7,0,3.2,0.5,4.5,1.6c0.2,0.2,0.4,0.4,0.6,0.6c0.1,0.1,0.3,0.4,0.7,0.8l-1.3,1.3L120.5,58.5z M125,50.3c-0.3-0.2-1-0.3-2-0.3
			c-1.3,0-2.3,0.4-3.2,1.3c-0.9,0.9-1.3,2-1.3,3.2c0,1,0.1,1.7,0.3,2L125,50.3z"/>
	</g>
	<g>
		<path class="st0" d="M135.3,40.9v20.6h-2.7V40.9H135.3z"/>
	</g>
	<g>
		<path class="st0" d="M143.3,58.5c0.4,0.4,1.3,0.6,2.4,0.6c1.3,0,2.4-0.4,3.3-1.3c0.1-0.1,0.3-0.4,0.7-0.8l2.7,1
			c-0.7,0.9-1.1,1.5-1.4,1.8c-1.4,1.4-3.2,2.1-5.2,2.1c-2,0-3.7-0.7-5.2-2.1s-2.1-3.2-2.1-5.2s0.7-3.7,2.1-5.2s3.2-2.1,5.2-2.1
			c1.7,0,3.2,0.5,4.5,1.6c0.2,0.2,0.4,0.4,0.6,0.6c0.1,0.1,0.3,0.4,0.7,0.8l-1.3,1.3L143.3,58.5z M147.7,50.3c-0.3-0.2-1-0.3-2-0.3
			c-1.3,0-2.3,0.4-3.2,1.3c-0.9,0.9-1.3,2-1.3,3.2c0,1,0.1,1.7,0.3,2L147.7,50.3z"/>
	</g>
	<g>
		<path class="st0" d="M165.8,56.9l2.7,1c-0.7,0.9-1.1,1.5-1.4,1.8c-1.4,1.4-3.2,2.1-5.2,2.1c-2,0-3.7-0.7-5.2-2.1s-2.1-3.2-2.1-5.2
			s0.7-3.7,2.1-5.2s3.2-2.1,5.2-2.1c2,0,3.7,0.7,5.2,2.1c0.3,0.3,0.8,0.9,1.4,1.8l-2.7,1c-0.3-0.4-0.6-0.7-0.7-0.8
			c-0.9-0.9-2-1.3-3.2-1.3c-1.3,0-2.3,0.4-3.2,1.3c-0.9,0.9-1.3,2-1.3,3.2c0,1.3,0.4,2.3,1.3,3.2c0.9,0.9,2,1.3,3.2,1.3
			c1.3,0,2.4-0.4,3.3-1.3C165.3,57.6,165.5,57.4,165.8,56.9z"/>
	</g>
	<g>
		<path class="st0" d="M182,56.9l2.7,1c-0.7,0.9-1.1,1.5-1.4,1.8c-1.4,1.4-3.2,2.1-5.2,2.1c-2,0-3.7-0.7-5.2-2.1s-2.1-3.2-2.1-5.2
			s0.7-3.7,2.1-5.2s3.2-2.1,5.2-2.1c2,0,3.7,0.7,5.2,2.1c0.3,0.3,0.8,0.9,1.4,1.8l-2.7,1c-0.3-0.4-0.6-0.7-0.7-0.8
			c-0.9-0.9-2-1.3-3.2-1.3c-1.3,0-2.3,0.4-3.2,1.3c-0.9,0.9-1.3,2-1.3,3.2c0,1.3,0.4,2.3,1.3,3.2c0.9,0.9,2,1.3,3.2,1.3
			c1.3,0,2.4-0.4,3.3-1.3C181.5,57.6,181.7,57.4,182,56.9z"/>
	</g>
	<g>
		<path class="st0" d="M190.6,43.4c0.4,0.4,0.6,0.8,0.6,1.3s-0.2,1-0.6,1.3c-0.4,0.4-0.8,0.5-1.3,0.5c-0.5,0-0.9-0.2-1.3-0.5
			c-0.4-0.4-0.6-0.8-0.6-1.3s0.2-1,0.6-1.3c0.4-0.4,0.8-0.5,1.3-0.5C189.8,42.8,190.3,43,190.6,43.4z M190.7,48.3v13.2H188V48.3
			H190.7z"/>
	</g>
	<g>
		<path class="st0" d="M201.3,47.2c2,0,3.7,0.7,5.2,2.1s2.1,3.2,2.1,5.2s-0.7,3.7-2.1,5.2s-3.1,2.1-5.2,2.1c-2,0-3.7-0.7-5.2-2.1
			s-2.1-3.2-2.1-5.2s0.7-3.7,2.1-5.2S199.3,47.2,201.3,47.2z M198,51.3c-0.9,0.9-1.3,2-1.3,3.2c0,1.3,0.4,2.3,1.3,3.2
			c0.9,0.9,2,1.3,3.2,1.3c1.3,0,2.3-0.4,3.2-1.3c0.9-0.9,1.3-2,1.3-3.2c0-1.3-0.4-2.3-1.3-3.2c-0.9-0.9-2-1.3-3.2-1.3
			C200,49.9,198.9,50.4,198,51.3z M202,43.4h3.2l-3.5,3.6h-2.5L202,43.4z"/>
	</g>
	<g>
		<path class="st0" d="M214.3,51.8v9.7h-2.7V48.3h2.7v1.5c0.6-1.5,1.7-2.3,3.4-2.3c1.4,0,2.6,0.5,3.4,1.5c0.8,1,1.3,2.3,1.3,3.8v8.6
			h-2.7V53c0-0.8-0.3-1.4-0.8-2c-0.6-0.5-1.2-0.8-2-0.8c-0.8,0-1.4,0.3-2,0.8C214.6,51.3,214.4,51.6,214.3,51.8z"/>
	</g>
</g>
</svg>
